<?xml version="1.0" standalone="no"?><!DOCTYPE svg PUBLIC "-//W3C//DTD SVG 1.1//EN" "http://www.w3.org/Graphics/SVG/1.1/DTD/svg11.dtd" [<!ENTITY nbsp "&#160;">]><svg xmlns="http://www.w3.org/2000/svg" id="plots-tab-plot-svg" height="773" width="795" role="img" viewBox="0 0 795 773" style="width: 795px; height: 773px; pointer-events: all;" version="1.1" xmlns:xlink="http://www.w3.org/1999/xlink"><g transform="translate(25,0)"><g><g><rect x="0" y="650" width="687.4690265486726" height="71.0925" role="presentation" shape-rendering="auto" vector-effect="non-scaling-stroke" style="fill: none;"></rect><path d="M 64.48230088495575, 663
      m -3, 0
      a 3, 3 0 1,0 6,0
      a 3, 3 0 1,0 -6,0" role="presentation" shape-rendering="auto" style="stroke: rgb(0, 0, 0); stroke-opacity: 0; fill: rgb(0, 128, 0); cursor: pointer; size: 3px; stroke-width: 1;"></path><path d="M 247.71681415929203, 663
      m -3, 0
      a 3, 3 0 1,0 6,0
      a 3, 3 0 1,0 -6,0" role="presentation" shape-rendering="auto" style="stroke: rgb(0, 0, 0); stroke-opacity: 0; fill: rgb(196, 229, 245); cursor: pointer; size: 3px; stroke-width: 1;"></path><path d="M 452.5221238938053, 663
      m -3, 0
      a 3, 3 0 1,0 6,0
      a 3, 3 0 1,0 -6,0" role="presentation" shape-rendering="auto" style="stroke: rgb(211, 211, 211); stroke-opacity: 1; fill: rgb(255, 255, 255); cursor: pointer; size: 3px; stroke-width: 1;"></path><path d="M 64.48230088495575, 686.6975
      m -3, 0
      a 3, 3 0 1,0 6,0
      a 3, 3 0 1,0 -6,0" role="presentation" shape-rendering="auto" style="stroke: rgb(255, 0, 0); fill-opacity: 0; fill: rgb(255, 0, 0); stroke-width: 1.8; cursor: pointer; size: 3px;"></path><path d="M 247.71681415929203, 686.6975
      m -3, 0
      a 3, 3 0 1,0 6,0
      a 3, 3 0 1,0 -6,0" role="presentation" shape-rendering="auto" style="stroke: rgb(255, 140, 159); fill-opacity: 0; fill: rgb(255, 140, 159); stroke-width: 1.8; cursor: pointer; size: 3px;"></path><path d="M 452.5221238938053, 686.6975
      m -3, 0
      a 3, 3 0 1,0 6,0
      a 3, 3 0 1,0 -6,0" role="presentation" shape-rendering="auto" style="stroke: rgb(190, 190, 190); fill-opacity: 0; fill: rgb(190, 190, 190); stroke-width: 1.8; cursor: pointer; size: 3px;"></path><path d="M 64.48230088495575, 710.395
      m -3, 0
      a 3, 3 0 1,0 6,0
      a 3, 3 0 1,0 -6,0" role="presentation" shape-rendering="auto" style="stroke: rgb(42, 206, 212); fill-opacity: 0; fill: rgb(42, 206, 212); stroke-width: 1.8; cursor: pointer; size: 3px;"></path><path d="M 247.71681415929203, 710.395
      m -3, 0
      a 3, 3 0 1,0 6,0
      a 3, 3 0 1,0 -6,0" role="presentation" shape-rendering="auto" style="stroke: rgb(0, 0, 0); fill-opacity: 0; fill: rgb(0, 0, 0); stroke-width: 1.8; stroke-opacity: 1; cursor: pointer; size: 3px;"></path><text direction="inherit" x="5" dx="-10" y="655" dy="12.825"><tspan x="5" dx="-10" text-anchor="start" style="font-size: 15px; font-weight: bold; font-family: Arial, Helvetica; letter-spacing: normal; padding: 5px; stroke: transparent; stroke-width: 0; text-anchor: start; fill: rgb(37, 37, 37);">ERBB2</tspan></text><text direction="inherit" class="legendLabel_Missense (Driver)" x="78.98230088495575" dx="0" y="663" dy="4.615"><tspan x="78.98230088495575" dx="0" text-anchor="start" style="cursor: pointer; font-family: Arial, Helvetica; font-size: 13px; letter-spacing: normal; padding: 8px; stroke: transparent; stroke-width: 0; fill: rgb(37, 37, 37);">Missense (Driver)</tspan></text><text direction="inherit" class="legendLabel_Not mutated" x="262.216814159292" dx="0" y="663" dy="4.615"><tspan x="262.216814159292" dx="0" text-anchor="start" style="cursor: pointer; font-family: Arial, Helvetica; font-size: 13px; letter-spacing: normal; padding: 8px; stroke: transparent; stroke-width: 0; fill: rgb(37, 37, 37);">Not mutated</tspan></text><text direction="inherit" class="legendLabel_Not profiled for mutations" x="467.0221238938053" dx="0" y="663" dy="4.615"><tspan x="467.0221238938053" dx="0" text-anchor="start" style="cursor: pointer; font-family: Arial, Helvetica; font-size: 13px; letter-spacing: normal; padding: 8px; stroke: transparent; stroke-width: 0; fill: rgb(37, 37, 37);">Not profiled for mutations</tspan></text><text direction="inherit" class="legendLabel_Amplification" x="78.98230088495575" dx="0" y="686.6975" dy="4.615"><tspan x="78.98230088495575" dx="0" text-anchor="start" style="cursor: pointer; font-family: Arial, Helvetica; font-size: 13px; letter-spacing: normal; padding: 8px; stroke: transparent; stroke-width: 0; fill: rgb(37, 37, 37);">Amplification</tspan></text><text direction="inherit" class="legendLabel_Gain" x="262.216814159292" dx="0" y="686.6975" dy="4.615"><tspan x="262.216814159292" dx="0" text-anchor="start" style="cursor: pointer; font-family: Arial, Helvetica; font-size: 13px; letter-spacing: normal; padding: 8px; stroke: transparent; stroke-width: 0; fill: rgb(37, 37, 37);">Gain</tspan></text><text direction="inherit" class="legendLabel_Diploid" x="467.0221238938053" dx="0" y="686.6975" dy="4.615"><tspan x="467.0221238938053" dx="0" text-anchor="start" style="cursor: pointer; font-family: Arial, Helvetica; font-size: 13px; letter-spacing: normal; padding: 8px; stroke: transparent; stroke-width: 0; fill: rgb(37, 37, 37);">Diploid</tspan></text><text direction="inherit" class="legendLabel_Shallow Deletion" x="78.98230088495575" dx="0" y="710.395" dy="4.615"><tspan x="78.98230088495575" dx="0" text-anchor="start" style="cursor: pointer; font-family: Arial, Helvetica; font-size: 13px; letter-spacing: normal; padding: 8px; stroke: transparent; stroke-width: 0; fill: rgb(37, 37, 37);">Shallow Deletion</tspan></text><text direction="inherit" class="legendLabel_Not profiled for CNA" x="262.216814159292" dx="0" y="710.395" dy="4.615"><tspan x="262.216814159292" dx="0" text-anchor="start" style="cursor: pointer; font-family: Arial, Helvetica; font-size: 13px; letter-spacing: normal; padding: 8px; stroke: transparent; stroke-width: 0; fill: rgb(37, 37, 37);">Not profiled for CNA</tspan></text></g><g role="presentation"><line x1="50" x2="600" y1="600" y2="600" role="presentation" shape-rendering="auto" vector-effect="non-scaling-stroke" style="stroke: black; fill: transparent; stroke-width: 1; stroke-linecap: round; stroke-linejoin: round;"></line><text direction="inherit" x="325" dx="0" y="608" dy="36.115"><tspan x="325" dx="0" text-anchor="middle" style="text-anchor: middle; font-family: Arial, Helvetica; font-size: 13px; letter-spacing: normal; padding: 8px; stroke: transparent; stroke-width: 0; fill: rgb(37, 37, 37);">ERBB2: mRNA expression (microarray)</tspan></text><g role="presentation"><line x1="104.47268707817543" x2="104.47268707817543" y1="600" y2="50" role="presentation" shape-rendering="auto" vector-effect="non-scaling-stroke" style="stroke: rgb(236, 239, 241); fill: none; stroke-opacity: 1; stroke-dasharray: 10, 5; stroke-linecap: round; stroke-linejoin: round; pointer-events: visible;"></line><line x1="104.47268707817543" x2="104.47268707817543" y1="600" y2="604" role="presentation" shape-rendering="auto" vector-effect="non-scaling-stroke" style="stroke: black; fill: transparent; size: 4px; stroke-width: 1; stroke-linecap: round; stroke-linejoin: round;"></line><text direction="inherit" x="104.47268707817543" dx="0" y="606" dy="11.115"><tspan x="104.47268707817543" dx="0" text-anchor="middle" style="font-family: Arial, Helvetica; font-size: 13px; letter-spacing: normal; padding: 2px; stroke: transparent; stroke-width: 0; fill: black;">1</tspan></text></g><g role="presentation"><line x1="193.52965342722118" x2="193.52965342722118" y1="600" y2="50" role="presentation" shape-rendering="auto" vector-effect="non-scaling-stroke" style="stroke: rgb(236, 239, 241); fill: none; stroke-opacity: 1; stroke-dasharray: 10, 5; stroke-linecap: round; stroke-linejoin: round; pointer-events: visible;"></line><line x1="193.52965342722118" x2="193.52965342722118" y1="600" y2="604" role="presentation" shape-rendering="auto" vector-effect="non-scaling-stroke" style="stroke: black; fill: transparent; size: 4px; stroke-width: 1; stroke-linecap: round; stroke-linejoin: round;"></line><text direction="inherit" x="193.52965342722118" dx="0" y="606" dy="11.115"><tspan x="193.52965342722118" dx="0" text-anchor="middle" style="font-family: Arial, Helvetica; font-size: 13px; letter-spacing: normal; padding: 2px; stroke: transparent; stroke-width: 0; fill: black;">2</tspan></text></g><g role="presentation"><line x1="282.58661977626696" x2="282.58661977626696" y1="600" y2="50" role="presentation" shape-rendering="auto" vector-effect="non-scaling-stroke" style="stroke: rgb(236, 239, 241); fill: none; stroke-opacity: 1; stroke-dasharray: 10, 5; stroke-linecap: round; stroke-linejoin: round; pointer-events: visible;"></line><line x1="282.58661977626696" x2="282.58661977626696" y1="600" y2="604" role="presentation" shape-rendering="auto" vector-effect="non-scaling-stroke" style="stroke: black; fill: transparent; size: 4px; stroke-width: 1; stroke-linecap: round; stroke-linejoin: round;"></line><text direction="inherit" x="282.58661977626696" dx="0" y="606" dy="11.115"><tspan x="282.58661977626696" dx="0" text-anchor="middle" style="font-family: Arial, Helvetica; font-size: 13px; letter-spacing: normal; padding: 2px; stroke: transparent; stroke-width: 0; fill: black;">3</tspan></text></g><g role="presentation"><line x1="371.6435861253127" x2="371.6435861253127" y1="600" y2="50" role="presentation" shape-rendering="auto" vector-effect="non-scaling-stroke" style="stroke: rgb(236, 239, 241); fill: none; stroke-opacity: 1; stroke-dasharray: 10, 5; stroke-linecap: round; stroke-linejoin: round; pointer-events: visible;"></line><line x1="371.6435861253127" x2="371.6435861253127" y1="600" y2="604" role="presentation" shape-rendering="auto" vector-effect="non-scaling-stroke" style="stroke: black; fill: transparent; size: 4px; stroke-width: 1; stroke-linecap: round; stroke-linejoin: round;"></line><text direction="inherit" x="371.6435861253127" dx="0" y="606" dy="11.115"><tspan x="371.6435861253127" dx="0" text-anchor="middle" style="font-family: Arial, Helvetica; font-size: 13px; letter-spacing: normal; padding: 2px; stroke: transparent; stroke-width: 0; fill: black;">4</tspan></text></g><g role="presentation"><line x1="460.7005524743585" x2="460.7005524743585" y1="600" y2="50" role="presentation" shape-rendering="auto" vector-effect="non-scaling-stroke" style="stroke: rgb(236, 239, 241); fill: none; stroke-opacity: 1; stroke-dasharray: 10, 5; stroke-linecap: round; stroke-linejoin: round; pointer-events: visible;"></line><line x1="460.7005524743585" x2="460.7005524743585" y1="600" y2="604" role="presentation" shape-rendering="auto" vector-effect="non-scaling-stroke" style="stroke: black; fill: transparent; size: 4px; stroke-width: 1; stroke-linecap: round; stroke-linejoin: round;"></line><text direction="inherit" x="460.7005524743585" dx="0" y="606" dy="11.115"><tspan x="460.7005524743585" dx="0" text-anchor="middle" style="font-family: Arial, Helvetica; font-size: 13px; letter-spacing: normal; padding: 2px; stroke: transparent; stroke-width: 0; fill: black;">5</tspan></text></g><g role="presentation"><line x1="549.7575188234042" x2="549.7575188234042" y1="600" y2="50" role="presentation" shape-rendering="auto" vector-effect="non-scaling-stroke" style="stroke: rgb(236, 239, 241); fill: none; stroke-opacity: 1; stroke-dasharray: 10, 5; stroke-linecap: round; stroke-linejoin: round; pointer-events: visible;"></line><line x1="549.7575188234042" x2="549.7575188234042" y1="600" y2="604" role="presentation" shape-rendering="auto" vector-effect="non-scaling-stroke" style="stroke: black; fill: transparent; size: 4px; stroke-width: 1; stroke-linecap: round; stroke-linejoin: round;"></line><text direction="inherit" x="549.7575188234042" dx="0" y="606" dy="11.115"><tspan x="549.7575188234042" dx="0" text-anchor="middle" style="font-family: Arial, Helvetica; font-size: 13px; letter-spacing: normal; padding: 2px; stroke: transparent; stroke-width: 0; fill: black;">6</tspan></text></g></g><g role="presentation"><line x1="50" x2="50" y1="50" y2="600" role="presentation" shape-rendering="auto" vector-effect="non-scaling-stroke" style="stroke: black; fill: transparent; stroke-width: 1; stroke-linecap: round; stroke-linejoin: round;"></line><text direction="inherit" x="42" dx="0" y="325" dy="-36.885" transform="rotate(-90,42,325)"><tspan x="42" dx="0" text-anchor="middle" style="text-anchor: middle; font-family: Arial, Helvetica; font-size: 13px; letter-spacing: normal; padding: 8px; stroke: transparent; stroke-width: 0; fill: rgb(37, 37, 37);">ERBB2: Protein expression (RPPA)</tspan></text><g role="presentation"><line x1="50" x2="600" y1="557.3384931732663" y2="557.3384931732663" role="presentation" shape-rendering="auto" vector-effect="non-scaling-stroke" style="stroke: rgb(236, 239, 241); fill: none; stroke-opacity: 1; stroke-dasharray: 10, 5; stroke-linecap: round; stroke-linejoin: round; pointer-events: visible;"></line><line x1="50" x2="46" y1="557.3384931732663" y2="557.3384931732663" role="presentation" shape-rendering="auto" vector-effect="non-scaling-stroke" style="stroke: black; fill: transparent; size: 4px; stroke-width: 1; stroke-linecap: round; stroke-linejoin: round;"></line><text direction="inherit" x="44" dx="0" y="557.3384931732663" dy="4.615"><tspan x="44" dx="0" text-anchor="end" style="font-family: Arial, Helvetica; font-size: 13px; letter-spacing: normal; padding: 2px; stroke: transparent; stroke-width: 0; fill: black;">-1</tspan></text></g><g role="presentation"><line x1="50" x2="600" y1="471.9392223792763" y2="471.9392223792763" role="presentation" shape-rendering="auto" vector-effect="non-scaling-stroke" style="stroke: rgb(236, 239, 241); fill: none; stroke-opacity: 0; stroke-dasharray: 10, 5; stroke-linecap: round; stroke-linejoin: round; pointer-events: visible;"></line><line x1="50" x2="46" y1="471.9392223792763" y2="471.9392223792763" role="presentation" shape-rendering="auto" vector-effect="non-scaling-stroke" style="stroke: black; fill: transparent; size: 4px; stroke-width: 1; stroke-linecap: round; stroke-linejoin: round;"></line><text direction="inherit" x="44" dx="0" y="471.9392223792763" dy="4.615"><tspan x="44" dx="0" text-anchor="end" style="font-family: Arial, Helvetica; font-size: 13px; letter-spacing: normal; padding: 2px; stroke: transparent; stroke-width: 0; fill: black;">0</tspan></text></g><g role="presentation"><line x1="50" x2="600" y1="386.5399515852863" y2="386.5399515852863" role="presentation" shape-rendering="auto" vector-effect="non-scaling-stroke" style="stroke: rgb(236, 239, 241); fill: none; stroke-opacity: 1; stroke-dasharray: 10, 5; stroke-linecap: round; stroke-linejoin: round; pointer-events: visible;"></line><line x1="50" x2="46" y1="386.5399515852863" y2="386.5399515852863" role="presentation" shape-rendering="auto" vector-effect="non-scaling-stroke" style="stroke: black; fill: transparent; size: 4px; stroke-width: 1; stroke-linecap: round; stroke-linejoin: round;"></line><text direction="inherit" x="44" dx="0" y="386.5399515852863" dy="4.615"><tspan x="44" dx="0" text-anchor="end" style="font-family: Arial, Helvetica; font-size: 13px; letter-spacing: normal; padding: 2px; stroke: transparent; stroke-width: 0; fill: black;">1</tspan></text></g><g role="presentation"><line x1="50" x2="600" y1="301.14068079129623" y2="301.14068079129623" role="presentation" shape-rendering="auto" vector-effect="non-scaling-stroke" style="stroke: rgb(236, 239, 241); fill: none; stroke-opacity: 1; stroke-dasharray: 10, 5; stroke-linecap: round; stroke-linejoin: round; pointer-events: visible;"></line><line x1="50" x2="46" y1="301.14068079129623" y2="301.14068079129623" role="presentation" shape-rendering="auto" vector-effect="non-scaling-stroke" style="stroke: black; fill: transparent; size: 4px; stroke-width: 1; stroke-linecap: round; stroke-linejoin: round;"></line><text direction="inherit" x="44" dx="0" y="301.14068079129623" dy="4.615"><tspan x="44" dx="0" text-anchor="end" style="font-family: Arial, Helvetica; font-size: 13px; letter-spacing: normal; padding: 2px; stroke: transparent; stroke-width: 0; fill: black;">2</tspan></text></g><g role="presentation"><line x1="50" x2="600" y1="215.74140999730628" y2="215.74140999730628" role="presentation" shape-rendering="auto" vector-effect="non-scaling-stroke" style="stroke: rgb(236, 239, 241); fill: none; stroke-opacity: 1; stroke-dasharray: 10, 5; stroke-linecap: round; stroke-linejoin: round; pointer-events: visible;"></line><line x1="50" x2="46" y1="215.74140999730628" y2="215.74140999730628" role="presentation" shape-rendering="auto" vector-effect="non-scaling-stroke" style="stroke: black; fill: transparent; size: 4px; stroke-width: 1; stroke-linecap: round; stroke-linejoin: round;"></line><text direction="inherit" x="44" dx="0" y="215.74140999730628" dy="4.615"><tspan x="44" dx="0" text-anchor="end" style="font-family: Arial, Helvetica; font-size: 13px; letter-spacing: normal; padding: 2px; stroke: transparent; stroke-width: 0; fill: black;">3</tspan></text></g><g role="presentation"><line x1="50" x2="600" y1="130.34213920331626" y2="130.34213920331626" role="presentation" shape-rendering="auto" vector-effect="non-scaling-stroke" style="stroke: rgb(236, 239, 241); fill: none; stroke-opacity: 1; stroke-dasharray: 10, 5; stroke-linecap: round; stroke-linejoin: round; pointer-events: visible;"></line><line x1="50" x2="46" y1="130.34213920331626" y2="130.34213920331626" role="presentation" shape-rendering="auto" vector-effect="non-scaling-stroke" style="stroke: black; fill: transparent; size: 4px; stroke-width: 1; stroke-linecap: round; stroke-linejoin: round;"></line><text direction="inherit" x="44" dx="0" y="130.34213920331626" dy="4.615"><tspan x="44" dx="0" text-anchor="end" style="font-family: Arial, Helvetica; font-size: 13px; letter-spacing: normal; padding: 2px; stroke: transparent; stroke-width: 0; fill: black;">4</tspan></text></g></g><g><path d="M 176.65335830407702, 448.321613978756
      m -4, 0
      a 4, 4 0 1,0 8,0
      a 4, 4 0 1,0 -8,0" role="presentation" shape-rendering="auto" style="fill: rgb(255, 255, 255); stroke: rgb(0, 0, 0); stroke-width: 1.8; stroke-opacity: 1; fill-opacity: 1; opacity: 1;"></path></g><g><path d="M 473.380038058304, 98.6394557823129
      m -4, 0
      a 4, 4 0 1,0 8,0
      a 4, 4 0 1,0 -8,0" role="presentation" shape-rendering="auto" style="fill: rgb(196, 229, 245); stroke: rgb(0, 0, 0); stroke-width: 1.8; stroke-opacity: 1; fill-opacity: 1; opacity: 1;"></path><path d="M 518.2090884942547, 369.09757564318386
      m -4, 0
      a 4, 4 0 1,0 8,0
      a 4, 4 0 1,0 -8,0" role="presentation" shape-rendering="auto" style="fill: rgb(196, 229, 245); stroke: rgb(0, 0, 0); stroke-width: 1.8; stroke-opacity: 1; fill-opacity: 1; opacity: 1;"></path></g><g><path d="M 98.63945578231292, 511.1640550452647
      m -4, 0
      a 4, 4 0 1,0 8,0
      a 4, 4 0 1,0 -8,0" role="presentation" shape-rendering="auto" style="fill: rgb(196, 229, 245); stroke: rgb(190, 190, 190); stroke-width: 1.8; stroke-opacity: 1; fill-opacity: 1; opacity: 1;"></path><path d="M 207.67857895592584, 467.5569707543807
      m -4, 0
      a 4, 4 0 1,0 8,0
      a 4, 4 0 1,0 -8,0" role="presentation" shape-rendering="auto" style="fill: rgb(196, 229, 245); stroke: rgb(190, 190, 190); stroke-width: 1.8; stroke-opacity: 1; fill-opacity: 1; opacity: 1;"></path><path d="M 199.28495987752828, 482.03277603419207
      m -4, 0
      a 4, 4 0 1,0 8,0
      a 4, 4 0 1,0 -8,0" role="presentation" shape-rendering="auto" style="fill: rgb(196, 229, 245); stroke: rgb(190, 190, 190); stroke-width: 1.8; stroke-opacity: 1; fill-opacity: 1; opacity: 1;"></path><path d="M 188.44227422453196, 461.9516750099957
      m -4, 0
      a 4, 4 0 1,0 8,0
      a 4, 4 0 1,0 -8,0" role="presentation" shape-rendering="auto" style="fill: rgb(196, 229, 245); stroke: rgb(190, 190, 190); stroke-width: 1.8; stroke-opacity: 1; fill-opacity: 1; opacity: 1;"></path><path d="M 243.76891456887665, 432.30779592830487
      m -4, 0
      a 4, 4 0 1,0 8,0
      a 4, 4 0 1,0 -8,0" role="presentation" shape-rendering="auto" style="fill: rgb(196, 229, 245); stroke: rgb(190, 190, 190); stroke-width: 1.8; stroke-opacity: 1; fill-opacity: 1; opacity: 1;"></path><path d="M 231.23414655524846, 442.19255357548485
      m -4, 0
      a 4, 4 0 1,0 8,0
      a 4, 4 0 1,0 -8,0" role="presentation" shape-rendering="auto" style="fill: rgb(196, 229, 245); stroke: rgb(190, 190, 190); stroke-width: 1.8; stroke-opacity: 1; fill-opacity: 1; opacity: 1;"></path><path d="M 145.29417402841926, 485.5972347626455
      m -4, 0
      a 4, 4 0 1,0 8,0
      a 4, 4 0 1,0 -8,0" role="presentation" shape-rendering="auto" style="fill: rgb(196, 229, 245); stroke: rgb(190, 190, 190); stroke-width: 1.8; stroke-opacity: 1; fill-opacity: 1; opacity: 1;"></path></g><g><path d="M 331.73493308014656, 366.57033273336765
      m -4, 0
      a 4, 4 0 1,0 8,0
      a 4, 4 0 1,0 -8,0" role="presentation" shape-rendering="auto" style="fill: rgb(196, 229, 245); stroke: rgb(255, 140, 159); stroke-width: 1.8; stroke-opacity: 1; fill-opacity: 1; opacity: 1;"></path><path d="M 255.30179171107807, 444.4509835780367
      m -4, 0
      a 4, 4 0 1,0 8,0
      a 4, 4 0 1,0 -8,0" role="presentation" shape-rendering="auto" style="fill: rgb(196, 229, 245); stroke: rgb(255, 140, 159); stroke-width: 1.8; stroke-opacity: 1; fill-opacity: 1; opacity: 1;"></path><path d="M 237.71304085714155, 487.8296528305076
      m -4, 0
      a 4, 4 0 1,0 8,0
      a 4, 4 0 1,0 -8,0" role="presentation" shape-rendering="auto" style="fill: rgb(196, 229, 245); stroke: rgb(255, 140, 159); stroke-width: 1.8; stroke-opacity: 1; fill-opacity: 1; opacity: 1;"></path></g><g><path d="M 153.72118946919772, 468.75129731948294
      m -4, 0
      a 4, 4 0 1,0 8,0
      a 4, 4 0 1,0 -8,0" role="presentation" shape-rendering="auto" style="fill: rgb(196, 229, 245); stroke: rgb(42, 206, 212); stroke-width: 1.8; stroke-opacity: 1; fill-opacity: 1; opacity: 1;"></path><path d="M 197.87118053673717, 494.43876832549154
      m -4, 0
      a 4, 4 0 1,0 8,0
      a 4, 4 0 1,0 -8,0" role="presentation" shape-rendering="auto" style="fill: rgb(196, 229, 245); stroke: rgb(42, 206, 212); stroke-width: 1.8; stroke-opacity: 1; fill-opacity: 1; opacity: 1;"></path><path d="M 240.3068250020575, 490.9003761018619
      m -4, 0
      a 4, 4 0 1,0 8,0
      a 4, 4 0 1,0 -8,0" role="presentation" shape-rendering="auto" style="fill: rgb(196, 229, 245); stroke: rgb(42, 206, 212); stroke-width: 1.8; stroke-opacity: 1; fill-opacity: 1; opacity: 1;"></path></g><g><path d="M 462.3147099894351, 269.8543494737519
      m -4, 0
      a 4, 4 0 1,0 8,0
      a 4, 4 0 1,0 -8,0" role="presentation" shape-rendering="auto" style="fill: rgb(196, 229, 245); stroke: rgb(255, 0, 0); stroke-width: 1.8; stroke-opacity: 1; fill-opacity: 1; opacity: 1;"></path><path d="M 423.6862508355363, 246.61804762173693
      m -4, 0
      a 4, 4 0 1,0 8,0
      a 4, 4 0 1,0 -8,0" role="presentation" shape-rendering="auto" style="fill: rgb(196, 229, 245); stroke: rgb(255, 0, 0); stroke-width: 1.8; stroke-opacity: 1; fill-opacity: 1; opacity: 1;"></path><path d="M 455.167888439924, 292.56984020066113
      m -4, 0
      a 4, 4 0 1,0 8,0
      a 4, 4 0 1,0 -8,0" role="presentation" shape-rendering="auto" style="fill: rgb(196, 229, 245); stroke: rgb(255, 0, 0); stroke-width: 1.8; stroke-opacity: 1; fill-opacity: 1; opacity: 1;"></path><path d="M 506.85432528475144, 119.57071346460441
      m -4, 0
      a 4, 4 0 1,0 8,0
      a 4, 4 0 1,0 -8,0" role="presentation" shape-rendering="auto" style="fill: rgb(196, 229, 245); stroke: rgb(255, 0, 0); stroke-width: 1.8; stroke-opacity: 1; fill-opacity: 1; opacity: 1;"></path><path d="M 376.519455032923, 356.4890139757807
      m -4, 0
      a 4, 4 0 1,0 8,0
      a 4, 4 0 1,0 -8,0" role="presentation" shape-rendering="auto" style="fill: rgb(196, 229, 245); stroke: rgb(255, 0, 0); stroke-width: 1.8; stroke-opacity: 1; fill-opacity: 1; opacity: 1;"></path><path d="M 446.9969117773991, 159.20030775962033
      m -4, 0
      a 4, 4 0 1,0 8,0
      a 4, 4 0 1,0 -8,0" role="presentation" shape-rendering="auto" style="fill: rgb(196, 229, 245); stroke: rgb(255, 0, 0); stroke-width: 1.8; stroke-opacity: 1; fill-opacity: 1; opacity: 1;"></path><path d="M 465.7767995562541, 180.40744727381616
      m -4, 0
      a 4, 4 0 1,0 8,0
      a 4, 4 0 1,0 -8,0" role="presentation" shape-rendering="auto" style="fill: rgb(196, 229, 245); stroke: rgb(255, 0, 0); stroke-width: 1.8; stroke-opacity: 1; fill-opacity: 1; opacity: 1;"></path><path d="M 432.54741898726644, 190.08700294157165
      m -4, 0
      a 4, 4 0 1,0 8,0
      a 4, 4 0 1,0 -8,0" role="presentation" shape-rendering="auto" style="fill: rgb(196, 229, 245); stroke: rgb(255, 0, 0); stroke-width: 1.8; stroke-opacity: 1; fill-opacity: 1; opacity: 1;"></path><path d="M 389.5329042406773, 267.4363382946294
      m -4, 0
      a 4, 4 0 1,0 8,0
      a 4, 4 0 1,0 -8,0" role="presentation" shape-rendering="auto" style="fill: rgb(196, 229, 245); stroke: rgb(255, 0, 0); stroke-width: 1.8; stroke-opacity: 1; fill-opacity: 1; opacity: 1;"></path><path d="M 415.81584143443945, 230.85867934599395
      m -4, 0
      a 4, 4 0 1,0 8,0
      a 4, 4 0 1,0 -8,0" role="presentation" shape-rendering="auto" style="fill: rgb(196, 229, 245); stroke: rgb(255, 0, 0); stroke-width: 1.8; stroke-opacity: 1; fill-opacity: 1; opacity: 1;"></path><path d="M 495.36597662572456, 168.1849189191575
      m -4, 0
      a 4, 4 0 1,0 8,0
      a 4, 4 0 1,0 -8,0" role="presentation" shape-rendering="auto" style="fill: rgb(196, 229, 245); stroke: rgb(255, 0, 0); stroke-width: 1.8; stroke-opacity: 1; fill-opacity: 1; opacity: 1;"></path><path d="M 426.8143767785466, 243.82355025594904
      m -4, 0
      a 4, 4 0 1,0 8,0
      a 4, 4 0 1,0 -8,0" role="presentation" shape-rendering="auto" style="fill: rgb(196, 229, 245); stroke: rgb(255, 0, 0); stroke-width: 1.8; stroke-opacity: 1; fill-opacity: 1; opacity: 1;"></path><path d="M 551.3605442176872, 150.16014804660017
      m -4, 0
      a 4, 4 0 1,0 8,0
      a 4, 4 0 1,0 -8,0" role="presentation" shape-rendering="auto" style="fill: rgb(196, 229, 245); stroke: rgb(255, 0, 0); stroke-width: 1.8; stroke-opacity: 1; fill-opacity: 1; opacity: 1;"></path><path d="M 496.81315232889654, 240.0570746846741
      m -4, 0
      a 4, 4 0 1,0 8,0
      a 4, 4 0 1,0 -8,0" role="presentation" shape-rendering="auto" style="fill: rgb(196, 229, 245); stroke: rgb(255, 0, 0); stroke-width: 1.8; stroke-opacity: 1; fill-opacity: 1; opacity: 1;"></path><path d="M 519.8900387340931, 136.80377007223967
      m -4, 0
      a 4, 4 0 1,0 8,0
      a 4, 4 0 1,0 -8,0" role="presentation" shape-rendering="auto" style="fill: rgb(196, 229, 245); stroke: rgb(255, 0, 0); stroke-width: 1.8; stroke-opacity: 1; fill-opacity: 1; opacity: 1;"></path><path d="M 375.4062429535599, 287.84554092603673
      m -4, 0
      a 4, 4 0 1,0 8,0
      a 4, 4 0 1,0 -8,0" role="presentation" shape-rendering="auto" style="fill: rgb(196, 229, 245); stroke: rgb(255, 0, 0); stroke-width: 1.8; stroke-opacity: 1; fill-opacity: 1; opacity: 1;"></path><path d="M 482.4861128674939, 107.9062939395746
      m -4, 0
      a 4, 4 0 1,0 8,0
      a 4, 4 0 1,0 -8,0" role="presentation" shape-rendering="auto" style="fill: rgb(196, 229, 245); stroke: rgb(255, 0, 0); stroke-width: 1.8; stroke-opacity: 1; fill-opacity: 1; opacity: 1;"></path><path d="M 366.1443184532592, 270.16399535915224
      m -4, 0
      a 4, 4 0 1,0 8,0
      a 4, 4 0 1,0 -8,0" role="presentation" shape-rendering="auto" style="fill: rgb(196, 229, 245); stroke: rgb(255, 0, 0); stroke-width: 1.8; stroke-opacity: 1; fill-opacity: 1; opacity: 1;"></path><path d="M 398.28275118447107, 264.96338651943285
      m -4, 0
      a 4, 4 0 1,0 8,0
      a 4, 4 0 1,0 -8,0" role="presentation" shape-rendering="auto" style="fill: rgb(196, 229, 245); stroke: rgb(255, 0, 0); stroke-width: 1.8; stroke-opacity: 1; fill-opacity: 1; opacity: 1;"></path><path d="M 222.22826083320118, 345.3697869822691
      m -4, 0
      a 4, 4 0 1,0 8,0
      a 4, 4 0 1,0 -8,0" role="presentation" shape-rendering="auto" style="fill: rgb(196, 229, 245); stroke: rgb(255, 0, 0); stroke-width: 1.8; stroke-opacity: 1; fill-opacity: 1; opacity: 1;"></path><path d="M 417.9754728684038, 281.60935226151076
      m -4, 0
      a 4, 4 0 1,0 8,0
      a 4, 4 0 1,0 -8,0" role="presentation" shape-rendering="auto" style="fill: rgb(196, 229, 245); stroke: rgb(255, 0, 0); stroke-width: 1.8; stroke-opacity: 1; fill-opacity: 1; opacity: 1;"></path><path d="M 446.4514378585111, 186.11633301686834
      m -4, 0
      a 4, 4 0 1,0 8,0
      a 4, 4 0 1,0 -8,0" role="presentation" shape-rendering="auto" style="fill: rgb(196, 229, 245); stroke: rgb(255, 0, 0); stroke-width: 1.8; stroke-opacity: 1; fill-opacity: 1; opacity: 1;"></path><path d="M 356.1588061013724, 380.68767722139864
      m -4, 0
      a 4, 4 0 1,0 8,0
      a 4, 4 0 1,0 -8,0" role="presentation" shape-rendering="auto" style="fill: rgb(196, 229, 245); stroke: rgb(255, 0, 0); stroke-width: 1.8; stroke-opacity: 1; fill-opacity: 1; opacity: 1;"></path><path d="M 482.93139769923897, 105.58647441501472
      m -4, 0
      a 4, 4 0 1,0 8,0
      a 4, 4 0 1,0 -8,0" role="presentation" shape-rendering="auto" style="fill: rgb(196, 229, 245); stroke: rgb(255, 0, 0); stroke-width: 1.8; stroke-opacity: 1; fill-opacity: 1; opacity: 1;"></path><path d="M 441.03009503201304, 146.90580472873796
      m -4, 0
      a 4, 4 0 1,0 8,0
      a 4, 4 0 1,0 -8,0" role="presentation" shape-rendering="auto" style="fill: rgb(196, 229, 245); stroke: rgb(255, 0, 0); stroke-width: 1.8; stroke-opacity: 1; fill-opacity: 1; opacity: 1;"></path><path d="M 318.63242690604324, 400.7789356348633
      m -4, 0
      a 4, 4 0 1,0 8,0
      a 4, 4 0 1,0 -8,0" role="presentation" shape-rendering="auto" style="fill: rgb(196, 229, 245); stroke: rgb(255, 0, 0); stroke-width: 1.8; stroke-opacity: 1; fill-opacity: 1; opacity: 1;"></path><path d="M 492.22671856192073, 212.38775424485158
      m -4, 0
      a 4, 4 0 1,0 8,0
      a 4, 4 0 1,0 -8,0" role="presentation" shape-rendering="auto" style="fill: rgb(196, 229, 245); stroke: rgb(255, 0, 0); stroke-width: 1.8; stroke-opacity: 1; fill-opacity: 1; opacity: 1;"></path><path d="M 433.5493098586932, 228.56960595009946
      m -4, 0
      a 4, 4 0 1,0 8,0
      a 4, 4 0 1,0 -8,0" role="presentation" shape-rendering="auto" style="fill: rgb(196, 229, 245); stroke: rgb(255, 0, 0); stroke-width: 1.8; stroke-opacity: 1; fill-opacity: 1; opacity: 1;"></path><path d="M 510.7505675625223, 108.6356101171005
      m -4, 0
      a 4, 4 0 1,0 8,0
      a 4, 4 0 1,0 -8,0" role="presentation" shape-rendering="auto" style="fill: rgb(196, 229, 245); stroke: rgb(255, 0, 0); stroke-width: 1.8; stroke-opacity: 1; fill-opacity: 1; opacity: 1;"></path><path d="M 455.713362358812, 447.04632676995925
      m -4, 0
      a 4, 4 0 1,0 8,0
      a 4, 4 0 1,0 -8,0" role="presentation" shape-rendering="auto" style="fill: rgb(196, 229, 245); stroke: rgb(255, 0, 0); stroke-width: 1.8; stroke-opacity: 1; fill-opacity: 1; opacity: 1;"></path></g><g><path d="M 221.1707093578063, 411.3271809688646
      m -4, 0
      a 4, 4 0 1,0 8,0
      a 4, 4 0 1,0 -8,0" role="presentation" shape-rendering="auto" style="fill: rgb(0, 128, 0); stroke: rgb(255, 140, 159); stroke-width: 1.8; stroke-opacity: 1; fill-opacity: 1; opacity: 1;"></path></g><g><path d="M 428.5621197431466, 338.6487106520946
      m -4, 0
      a 4, 4 0 1,0 8,0
      a 4, 4 0 1,0 -8,0" role="presentation" shape-rendering="auto" style="fill: rgb(0, 128, 0); stroke: rgb(255, 0, 0); stroke-width: 1.8; stroke-opacity: 1; fill-opacity: 1; opacity: 1;"></path></g><g clip-path="url(#victory-clip-88)" style="height: 100%; width: 100%; user-select: none;"><defs><clipPath id="victory-clip-88"><rect x="50" y="50" width="550" height="550" role="presentation" shape-rendering="auto" vector-effect="non-scaling-stroke"></rect></clipPath></defs><path d="M98.63945578231292,551.3605442176871L415.5442176870749,262.71100893400074L551.3605442176872,138.88206628271524" role="presentation" shape-rendering="auto" style="fill: transparent; stroke: rgb(196, 58, 49); stroke-width: 2; opacity: 1;"></path><text direction="inherit" x="98.63945578231292" dx="0" y="559.3605442176871" dy="15.075"><tspan x="98.63945578231292" dx="0" text-anchor="middle" style="font-size: 15px; fill: rgb(0, 0, 0); stroke: rgb(255, 255, 255); stroke-width: 6; font-weight: bold; paint-order: stroke; text-anchor: middle; font-family: Arial, Helvetica; letter-spacing: normal; padding: 8px;"></tspan></text><text direction="inherit" x="415.5442176870749" dx="0" y="254.71100893400074" dy="-4.425000000000001"><tspan x="415.5442176870749" dx="0" text-anchor="middle" style="font-size: 15px; fill: rgb(0, 0, 0); stroke: rgb(255, 255, 255); stroke-width: 6; font-weight: bold; paint-order: stroke; text-anchor: middle; font-family: Arial, Helvetica; letter-spacing: normal; padding: 8px;"></tspan></text><text direction="inherit" x="551.3605442176872" dx="0" y="130.88206628271524" dy="-4.425000000000001"><tspan x="551.3605442176872" dx="0" text-anchor="middle" style="font-size: 15px; fill: rgb(0, 0, 0); stroke: rgb(255, 255, 255); stroke-width: 6; font-weight: bold; paint-order: stroke; text-anchor: middle; font-family: Arial, Helvetica; letter-spacing: normal; padding: 8px;"></tspan></text></g></g><g><text direction="inherit" x="737" dx="0" y="100" dy="4.615"><tspan x="737" dx="0" text-anchor="end" style="font-family: Arial, Helvetica; font-size: 13px; fill: rgb(37, 37, 37); stroke: transparent;">Spearman: 0.84</tspan></text><text direction="inherit" x="737" dx="0" y="100" dy="24.615"><tspan x="737" dx="0" text-anchor="end" style="font-family: Arial, Helvetica; font-size: 13px; fill: rgb(37, 37, 37); stroke: transparent;">(p = 1.00e-13)</tspan></text><text direction="inherit" x="737" dx="0" y="100" dy="54.615"><tspan x="737" dx="0" text-anchor="end" style="font-family: Arial, Helvetica; font-size: 13px; fill: rgb(37, 37, 37); stroke: transparent;">Pearson: 0.86</tspan></text><text direction="inherit" x="737" dx="0" y="100" dy="74.615"><tspan x="737" dx="0" text-anchor="end" style="font-family: Arial, Helvetica; font-size: 13px; fill: rgb(37, 37, 37); stroke: transparent;">(p = 3.16e-15)</tspan></text></g><g><line stroke="#c43a31" stroke-width="2" x1="640" y1="195" x2="650" y2="195" dy="0"></line><text direction="inherit" x="657" dx="0" y="195" dy="04.615"><tspan x="657" dx="0" text-anchor="start" style="font-family: Arial, Helvetica; font-size: 13px; fill: rgb(37, 37, 37); stroke: transparent;">y = 0.95x + -1.82</tspan></text><text direction="inherit" x="657" dx="0" y="195" dy="24.615"><tspan x="657" dx="0" text-anchor="start" style="font-family: Arial, Helvetica; font-size: 13px; fill: rgb(37, 37, 37); stroke: transparent;">R² = 0.74</tspan></text></g></g></svg>